<svg xmlns="http://www.w3.org/2000/svg" viewBox="0 0 32 32">
  <rect width="32" height="32" fill="#16130e"></rect>
  <g transform="translate(-5, -5)">
    <rect x="0" y="0" width="6" height="6" fill="#f6f1ea"></rect>
    <rect x="9" y="0" width="6" height="6" fill="#f6f1ea"></rect>
    <rect x="18" y="0" width="6" height="6" fill="#f6f1ea"></rect>
    <rect x="27" y="0" width="6" height="6" fill="#f6f1ea"></rect>
    <rect x="36" y="0" width="6" height="6" fill="#f6f1ea"></rect>
    <rect x="0" y="9" width="6" height="6" fill="#f6f1ea"></rect>
    <rect x="9" y="9" width="6" height="6" fill="#f6f1ea"></rect>
    <rect x="18" y="9" width="6" height="6" fill="#c75d3a"></rect>
    <rect x="27" y="9" width="6" height="6" fill="#f6f1ea"></rect>
    <rect x="36" y="9" width="6" height="6" fill="#f6f1ea"></rect>
    <rect x="0" y="18" width="6" height="6" fill="#f6f1ea"></rect>
    <rect x="9" y="18" width="6" height="6" fill="#f6f1ea"></rect>
    <rect x="27" y="18" width="6" height="6" fill="#f6f1ea"></rect>
    <rect x="36" y="18" width="6" height="6" fill="#f6f1ea"></rect>
    <rect x="0" y="27" width="6" height="6" fill="#f6f1ea"></rect>
    <rect x="9" y="27" width="6" height="6" fill="#f6f1ea"></rect>
    <rect x="18" y="27" width="6" height="6" fill="#f6f1ea"></rect>
    <rect x="27" y="27" width="6" height="6" fill="#f6f1ea"></rect>
    <rect x="36" y="27" width="6" height="6" fill="#f6f1ea"></rect>
    <rect x="0" y="36" width="6" height="6" fill="#f6f1ea"></rect>
    <rect x="9" y="36" width="6" height="6" fill="#f6f1ea"></rect>
    <rect x="18" y="36" width="6" height="6" fill="#f6f1ea"></rect>
    <rect x="27" y="36" width="6" height="6" fill="#f6f1ea"></rect>
    <rect x="36" y="36" width="6" height="6" fill="#f6f1ea"></rect>
  </g>
</svg>
